Format : AVI
Format/Info : Audio Video Interleave
File size : 908 MiB
Duration : 1h 47mn
Overall bit rate : 1 184 Kbps
Writing application : VirtualDubMod 1.5.10.2 (build 2540/release)
Writing library : VirtualDub build 32839/release

Video
ID : 0
Format : MPEG-4 Visual
Format profile : Advanced Simple@L5
Format settings, BVOP : Yes
Format settings, QPel : No
Format settings, GMC : No warppoints
Format settings, Matrix : Custom
Codec ID : XVID
Codec ID/Hint : XviD
Duration : 1h 47mn
Bit rate : 1 042 Kbps
Width : 692 pixels
Height : 294 pixels
Display aspect ratio : 2.35:1
Frame rate : 23.976 fps
Color space : YUV
Chroma subsampling : 4:2:0
Bit depth : 8 bits
Scan type : Progressive
Bits/(Pixel*Frame) : 0.214
Stream size : 799 MiB (88%)
Writing library : XviD 1.2.1 (UTC 2008-12-04)

Audio
ID : 1
Format : MPEG Audio
Format version : Version 1
Format profile : Layer 3
Mode : Joint stereo
Mode extension : MS Stereo
Codec ID : 55
Codec ID/Hint : MP3
Duration : 1h 47mn
Bit rate mode : Variable
Bit rate : 128 Kbps
Channel(s) : 2 channels
Sampling rate : 48.0 KHz
Stream size : 99.2 MiB (11%)
Alignment : Aligned on interleaves
Interleave, duration : 24 ms (0.58 video frame)
Interleave, preload duration : 142 ms
Writing library : LAME3.90.
Encoding settings : -m j -V 4 -q 2 -lowpass 17.6 --abr 128
 
http://www.imdb.com/title/tt0872230/


Users: 4.6/10 (1,561 votes) 44 reviews | Critics: 60 reviews Metascore: 25/100 (based on 13 reviews from Metacritic.com)

A serial killer returns to his hometown to stalk seven children who share the same birthday as the date he was allegedly put to rest.
Director:
Wes Craven
Writer:
Wes Craven
Stars:
Max Thieriot, John Magaro and Denzel Whitaker 